<svg width="36" height="35" viewBox="0 0 36 35" fill="none" xmlns="http://www.w3.org/2000/svg">
<path d="M17.9455 0C27.8177 0 35.8492 8.03156 35.8492 17.9455C35.8492 25.8516 30.704 32.5864 23.5927 34.9708C22.6724 35.1381 22.3796 34.5525 22.3796 34.0923C22.3796 33.5067 22.3796 31.5825 22.3796 29.1563C22.3796 27.483 21.8358 26.3954 21.1665 25.8516C25.1823 25.3915 29.3654 23.8855 29.3654 17.0252C29.3654 15.0592 28.6543 13.4696 27.5248 12.2147C27.6922 11.7127 28.3196 9.91396 27.3575 7.44593C25.8516 6.98579 22.4215 9.2865 22.4215 9.2865C20.9992 8.86819 19.4514 8.65903 17.9455 8.65903C16.4396 8.65903 14.8919 8.86819 13.4278 9.2865C13.4278 9.2865 9.99763 6.98579 8.53354 7.44593C7.52959 9.91396 8.15706 11.7127 8.32438 12.2147C7.19494 13.4696 6.48382 15.0592 6.48382 17.0252C6.48382 23.8855 10.6669 25.3915 14.6409 25.8516C14.1389 26.3117 13.6788 27.1065 13.5114 28.2778C12.5075 28.7379 9.87213 29.5327 8.32438 26.7719C7.32044 25.0568 5.56353 24.9313 5.56353 24.9313C3.80663 24.8895 5.43804 26.0189 5.43804 26.0189C6.60931 26.5627 7.44593 28.6124 7.44593 28.6124C8.49171 31.8334 13.4696 30.7458 13.4696 30.7458C13.4696 32.2518 13.5114 33.674 13.5114 34.0923C13.5114 34.5525 13.1768 35.1381 12.2565 34.9708C5.14522 32.5864 0 25.8516 0 17.9455C0 8.03156 8.03156 0 17.9455 0ZM6.77663 25.7679C6.8603 25.6843 6.77663 25.5588 6.65114 25.4751C6.48382 25.4333 6.35832 25.4751 6.31649 25.517C6.27466 25.6006 6.35832 25.7261 6.48382 25.8098C6.60931 25.8934 6.7348 25.8516 6.77663 25.7679ZM7.52959 26.5627C7.61325 26.4791 7.57142 26.3117 7.48776 26.1863C7.36227 26.0608 7.19494 26.0189 7.11128 26.1026C6.98579 26.1862 7.02762 26.3536 7.15311 26.4791C7.27861 26.6046 7.44593 26.6464 7.52959 26.5627ZM8.19889 27.6085C8.32438 27.5248 8.32438 27.3157 8.19889 27.1484C8.11523 26.981 7.9479 26.9392 7.82241 27.0229C7.69692 27.1065 7.69692 27.2739 7.82241 27.4412C7.9479 27.6085 8.11523 27.6922 8.19889 27.6085ZM9.20284 28.5706C9.2865 28.487 9.24467 28.2778 9.11917 28.1523C8.95185 27.985 8.74269 27.9432 8.65903 28.0686C8.53354 28.1523 8.57537 28.3615 8.74269 28.5288C8.91002 28.6961 9.11917 28.6961 9.20284 28.5706ZM10.5414 29.1563C10.5833 29.0308 10.4159 28.8634 10.2068 28.7798C10.0395 28.7379 9.8303 28.8216 9.78847 28.9471C9.74664 29.0726 9.87213 29.2817 10.0813 29.3236C10.2904 29.3654 10.4996 29.3236 10.5414 29.1563ZM12.0055 29.2817C12.0055 29.1144 11.7964 28.9889 11.5872 29.0308C11.3781 29.0308 11.2107 29.1563 11.2107 29.2817C11.2107 29.4491 11.378 29.5746 11.629 29.5327C11.8382 29.5327 12.0055 29.4072 12.0055 29.2817ZM13.3441 29.0726C13.3441 28.9053 13.135 28.8216 12.9258 28.8216C12.7166 28.9053 12.5912 29.0308 12.5912 29.1981C12.633 29.3236 12.8003 29.4072 13.0095 29.3654C13.2186 29.3236 13.3859 29.1981 13.3441 29.0726Z" fill="black"/>
</svg>
