<svg width="35" height="35" viewBox="0 0 35 35" fill="none" xmlns="http://www.w3.org/2000/svg">
<g clip-path="url(#clip0_28_660)">
<path d="M34.9998 17.8878C34.9998 16.4531 34.8806 15.4061 34.6228 14.3203H17.8569V20.7961H27.6981C27.4998 22.4055 26.4284 24.8291 24.0474 26.4577L24.014 26.6745L29.315 30.6875L29.6823 30.7233C33.0553 27.6792 34.9998 23.2004 34.9998 17.8878Z" fill="#4285F4"/>
<path d="M17.8572 34.9499C22.6786 34.9499 26.7261 33.3987 29.6826 30.7232L24.0476 26.4575C22.5397 27.4851 20.5159 28.2025 17.8572 28.2025C13.135 28.2025 9.12711 25.1586 7.69841 20.9512L7.48899 20.9685L1.97687 25.1372L1.90479 25.333C4.84126 31.0333 10.873 34.9499 17.8572 34.9499Z" fill="#34A853"/>
<path d="M7.69834 20.9513C7.32136 19.8656 7.10319 18.7021 7.10319 17.5001C7.10319 16.2979 7.32136 15.1346 7.6785 14.0489L7.66852 13.8176L2.08732 9.58203L1.90472 9.66691C0.694452 12.0324 0 14.6887 0 17.5001C0 20.3115 0.694452 22.9677 1.90472 25.3331L7.69834 20.9513Z" fill="#FBBC05"/>
<path d="M17.8572 6.79734C21.2103 6.79734 23.4722 8.21272 24.7619 9.39552L29.8016 4.58705C26.7064 1.77567 22.6786 0.0500488 17.8572 0.0500488C10.873 0.0500488 4.84126 3.96657 1.90479 9.66686L7.67857 14.0488C9.12711 9.84143 13.135 6.79734 17.8572 6.79734Z" fill="#EB4335"/>
</g>
<defs>
<clipPath id="clip0_28_660">
<rect width="35" height="35" fill="white"/>
</clipPath>
</defs>
</svg>
