<svg
    width="314"
    height="87"
    viewBox="0 0 314 87"
    fill="none"
    xmlns="http://www.w3.org/2000/svg"
>
    <path
    fillRule='evenodd'
    clipRule='evenodd'
    d="M194.36 9.15728C193.529 10.8943 191.774 12 189.849 12L122.278 12C120.288 12 118.487 10.8192 117.693 8.99362L113.783 0H10C4.47715 0 0 4.47715 0 10V65C0 70.5229 4.47715 75 10 75H113.783L117.693 83.9936C118.487 85.8192 120.288 87 122.278 87L189.849 87C191.774 87 193.529 85.8943 194.36 84.1573L198.739 75H304C309.523 75 314 70.5229 314 65V10C314 4.47715 309.523 0 304 0H198.739L194.36 9.15728Z"
    pointerEvents='auto'
    />
</svg>
