<svg width="56" height="54" viewBox="0 0 56 54" fill="none" xmlns="http://www.w3.org/2000/svg">
<path d="M27.6857 0.0769043C42.8735 0.0769043 55.2298 12.4332 55.2298 27.6854C55.2298 39.8486 47.3141 50.2098 36.3736 53.8781C34.9578 54.1355 34.5073 53.2345 34.5073 52.5266C34.5073 51.6256 34.5073 48.6653 34.5073 44.9327C34.5073 42.3585 33.6707 40.6852 32.641 39.8486C38.8192 39.1407 45.2547 36.8239 45.2547 26.2696C45.2547 23.2449 44.1607 20.7994 42.4231 18.8687C42.6805 18.0964 43.6458 15.3292 42.1656 11.5322C39.8488 10.8243 34.5717 14.3638 34.5717 14.3638C32.3836 13.7203 30.0025 13.3985 27.6857 13.3985C25.3689 13.3985 22.9877 13.7203 20.7353 14.3638C20.7353 14.3638 15.4581 10.8243 13.2057 11.5322C11.6611 15.3292 12.6265 18.0964 12.8839 18.8687C11.1463 20.7994 10.0522 23.2449 10.0522 26.2696C10.0522 36.8239 16.4878 39.1407 22.6016 39.8486C21.8293 40.5565 21.1214 41.7793 20.864 43.5812C19.3194 44.2891 15.265 45.5119 12.8839 41.2644C11.3394 38.6258 8.63643 38.4328 8.63643 38.4328C5.9335 38.3684 8.44336 40.106 8.44336 40.106C10.2453 40.9426 11.5324 44.0961 11.5324 44.0961C13.1413 49.0514 20.7996 47.3782 20.7996 47.3782C20.7996 49.695 20.864 51.8831 20.864 52.5266C20.864 53.2345 20.3491 54.1355 18.9333 53.8781C7.99287 50.2098 0.0771484 39.8486 0.0771484 27.6854C0.0771484 12.4332 12.4334 0.0769043 27.6857 0.0769043ZM10.5027 39.7199C10.6314 39.5912 10.5027 39.3981 10.3097 39.2694C10.0522 39.205 9.85918 39.2694 9.79483 39.3338C9.73047 39.4625 9.85918 39.6555 10.0522 39.7842C10.2453 39.913 10.4384 39.8486 10.5027 39.7199ZM11.6611 40.9426C11.7898 40.8139 11.7255 40.5565 11.5968 40.3634C11.4037 40.1704 11.1463 40.106 11.0176 40.2347C10.8245 40.3634 10.8889 40.6209 11.0819 40.8139C11.275 41.007 11.5324 41.0714 11.6611 40.9426ZM12.6908 42.5515C12.8839 42.4228 12.8839 42.101 12.6908 41.8436C12.5621 41.5862 12.3047 41.5218 12.1116 41.6506C11.9186 41.7793 11.9186 42.0367 12.1116 42.2941C12.3047 42.5515 12.5621 42.6802 12.6908 42.5515ZM14.2354 44.0317C14.3641 43.903 14.2997 43.5812 14.1066 43.3881C13.8492 43.1307 13.5274 43.0664 13.3987 43.2594C13.2057 43.3881 13.27 43.7099 13.5274 43.9674C13.7849 44.2248 14.1066 44.2248 14.2354 44.0317ZM16.2947 44.9327C16.3591 44.7396 16.1017 44.4822 15.7799 44.3535C15.5225 44.2891 15.2007 44.4178 15.1363 44.6109C15.072 44.804 15.265 45.1257 15.5868 45.1901C15.9086 45.2545 16.2304 45.1901 16.2947 44.9327ZM18.5472 45.1257C18.5472 44.8683 18.2254 44.6753 17.9036 44.7396C17.5818 44.7396 17.3244 44.9327 17.3244 45.1257C17.3244 45.3832 17.5818 45.5762 17.968 45.5119C18.2898 45.5119 18.5472 45.3188 18.5472 45.1257ZM20.6066 44.804C20.6066 44.5465 20.2848 44.4178 19.963 44.4178C19.6412 44.5465 19.4482 44.7396 19.4482 44.997C19.5125 45.1901 19.7699 45.3188 20.0917 45.2545C20.4135 45.1901 20.6709 44.997 20.6066 44.804Z" fill="black"/>
</svg>
