<svg width="60" height="46" viewBox="0 0 60 46" fill="none" xmlns="http://www.w3.org/2000/svg">
<path d="M4.09219 45.0143H13.6324V21.8428L0 11.6064V40.9221C0 43.1908 1.83633 45.0143 4.09219 45.0143Z" fill="#4285F4"/>
<path d="M46.3672 45.0143H55.9074C58.1633 45.0143 59.9996 43.1779 59.9996 40.9221V11.6064L46.3672 21.8299V45.0143Z" fill="#34A853"/>
<path d="M46.3672 4.10646V21.8299L59.9996 11.6065V6.14669C59.9996 1.09474 54.2281 -1.79745 50.184 1.23888L46.3672 4.10646Z" fill="#FBBC04"/>
<path d="M13.6328 21.8428V4.10645L30.0004 16.383L46.368 4.10645V21.8428L30.0004 34.1064L13.6328 21.8428Z" fill="#EA4335"/>
<path d="M0 6.15841V11.6182L13.6324 21.8416V4.10646L9.81563 1.2506C5.77148 -1.78573 0 1.10646 0 6.15841Z" fill="#C5221F"/>
</svg>
