<svg width="100" height="100" viewBox="0 0 100 100" fill="none" xmlns="http://www.w3.org/2000/svg">
<circle cx="50" cy="50" r="50" fill="white"/>
<g clip-path="url(#clip0_84_3416)">
<path d="M65.8039 34.2197H34.2195V65.8041H65.8039V34.2197Z" fill="white"/>
<path d="M65.7805 79.9998L80 65.7803H65.7805V79.9998Z" fill="#EA4335"/>
<path d="M80 34.2197H65.7805V65.8041H80V34.2197Z" fill="#FBBC04"/>
<path d="M65.8039 65.7803H34.2195V79.9998H65.8039V65.7803Z" fill="#34A853"/>
<path d="M20 65.7803V75.2479C20 77.8764 22.1234 79.9998 24.7402 79.9998H34.2078V65.7803H20Z" fill="#188038"/>
<path d="M80 34.2195V24.7391C80 22.1234 77.8766 20 75.2598 20H65.7922V34.2195H80Z" fill="#1967D2"/>
<path d="M65.7805 20H24.7402C22.1234 20 20 22.1234 20 24.7402V65.7922H34.2195V34.2195H65.8039L65.7805 20Z" fill="#4285F4"/>
<path d="M40.6883 58.7116C39.5 57.9194 38.6961 56.7558 38.2402 55.2077L40.9883 54.0792C41.2402 55.0272 41.6727 55.7597 42.2844 56.287C42.9078 56.8026 43.652 57.0546 44.5285 57.0546C45.4168 57.0546 46.1961 56.7909 46.8324 56.239C47.4805 55.687 47.8039 54.9909 47.8039 54.1507C47.8039 53.2987 47.4676 52.5909 46.7844 52.039C46.1 51.4987 45.248 51.2233 44.2285 51.2233H42.6441V48.5116H44.0598C44.9363 48.5116 45.6793 48.2714 46.2793 47.7921C46.8793 47.3245 47.1793 46.6636 47.1793 45.8479C47.1793 45.1038 46.9156 44.5284 46.3754 44.096C45.8352 43.6636 45.152 43.4362 44.3352 43.4362C43.5313 43.4362 42.8949 43.6519 42.4156 44.0843C41.948 44.5167 41.5871 45.0558 41.3832 45.6687L38.6715 44.5401C39.0313 43.5206 39.691 42.6206 40.652 41.8401C41.6234 41.0726 42.8598 40.6636 44.3598 40.6636C45.4754 40.6636 46.4715 40.8792 47.348 41.3116C48.2246 41.744 48.9324 42.344 49.4363 43.0882C49.9402 43.844 50.1922 44.7077 50.1922 45.6558C50.1922 46.6272 49.952 47.4323 49.4844 48.1155C49.0168 48.787 48.4402 49.3038 47.7559 49.6636V49.8312C48.6324 50.1909 49.4 50.7909 49.9637 51.5597C50.5402 52.3272 50.8156 53.2519 50.8156 54.3194C50.8156 55.3999 50.552 56.3479 50 57.187C49.4598 58.0272 48.7039 58.687 47.7441 59.1675C46.7844 59.648 45.7039 59.8999 44.5039 59.8999C43.148 59.8999 41.8637 59.5038 40.6883 58.7116ZM57.5117 45.1155L54.5 47.2999L53 45.0194L58.3883 41.1312H60.4648V59.4921H57.5117V45.1155Z" fill="#4285F4"/>
</g>
<defs>
<clipPath id="clip0_84_3416">
<rect width="60" height="60" fill="white" transform="translate(20 20)"/>
</clipPath>
</defs>
</svg>
