<svg width="54" height="54" viewBox="0 0 54 54" fill="none" xmlns="http://www.w3.org/2000/svg">
<g clip-path="url(#clip0_84_2805)">
<path d="M53.9998 27.5982C53.9998 25.3845 53.8159 23.7692 53.4181 22.094H27.5508V32.0853H42.7343C42.4283 34.5682 40.7753 38.3075 37.1017 40.8202L37.0502 41.1547L45.229 47.3462L45.7957 47.4015C50.9996 42.7049 53.9998 35.7946 53.9998 27.5982Z" fill="#4285F4"/>
<path d="M27.5508 53.9228C34.9895 53.9228 41.2343 51.5295 45.7957 47.4015L37.1017 40.8202C34.7753 42.4057 31.6527 43.5125 27.5508 43.5125C20.2651 43.5125 14.0815 38.8161 11.8772 32.3247L11.5541 32.3515L3.04969 38.7831L2.93848 39.0852C7.46904 47.88 16.7752 53.9228 27.5508 53.9228Z" fill="#34A853"/>
<path d="M11.8774 32.3247C11.2958 30.6495 10.9592 28.8545 10.9592 26.9999C10.9592 25.1451 11.2958 23.3503 11.8468 21.6751L11.8314 21.3184L3.22044 14.7834L2.93871 14.9144C1.07144 18.564 0 22.6623 0 26.9999C0 31.3375 1.07144 35.4356 2.93871 39.0852L11.8774 32.3247Z" fill="#FBBC05"/>
<path d="M27.5508 10.4873C32.7242 10.4873 36.2139 12.671 38.2038 14.4959L45.9793 7.07709C41.2039 2.73953 34.9895 0.0771484 27.5508 0.0771484C16.7752 0.0771484 7.46904 6.11979 2.93848 14.9145L11.8466 21.6752C14.0815 15.1839 20.2651 10.4873 27.5508 10.4873Z" fill="#EB4335"/>
</g>
<defs>
<clipPath id="clip0_84_2805">
<rect width="54" height="54" fill="white"/>
</clipPath>
</defs>
</svg>
