<svg width="50" height="50" viewBox="0 0 50 50" fill="none" xmlns="http://www.w3.org/2000/svg">
<circle cx="25" cy="25" r="23.5" fill="transparent" stroke="black" stroke-width="3"/>
<path d="M38.6667 40V36.6667C38.6667 34.8986 37.9643 33.2029 36.714 31.9526C35.4638 30.7024 33.7681 30 32 30H18.6667C16.8986 30 15.2029 30.7024 13.9526 31.9526C12.7024 33.2029 12 34.8986 12 36.6667V40" stroke="black" stroke-width="3" stroke-linecap="round" stroke-linejoin="round"/>
<path d="M25.3334 23.3333C29.0153 23.3333 32.0001 20.3486 32.0001 16.6667C32.0001 12.9848 29.0153 10 25.3334 10C21.6515 10 18.6667 12.9848 18.6667 16.6667C18.6667 20.3486 21.6515 23.3333 25.3334 23.3333Z" stroke="black" stroke-width="3" stroke-linecap="round" stroke-linejoin="round"/>
</svg>
