<svg width="54" height="54" viewBox="0 0 54 54" fill="none" xmlns="http://www.w3.org/2000/svg">
<path d="M26.9999 33.8185C30.7655 33.8185 33.8181 30.7659 33.8181 27.0003C33.8181 23.2347 30.7655 20.1821 26.9999 20.1821C23.2344 20.1821 20.1818 23.2347 20.1818 27.0003C20.1818 30.7659 23.2344 33.8185 26.9999 33.8185Z" stroke="black" stroke-width="3" stroke-linecap="round" stroke-linejoin="round"/>
<path d="M43.8182 33.8182C43.5156 34.5037 43.4254 35.2641 43.5591 36.0013C43.6928 36.7386 44.0442 37.4189 44.5682 37.9545L44.7045 38.0909C45.1272 38.5131 45.4624 39.0144 45.6912 39.5662C45.9199 40.118 46.0377 40.7095 46.0377 41.3068C46.0377 41.9042 45.9199 42.4956 45.6912 43.0475C45.4624 43.5993 45.1272 44.1006 44.7045 44.5227C44.2824 44.9453 43.7811 45.2806 43.2293 45.5094C42.6775 45.7381 42.086 45.8558 41.4886 45.8558C40.8913 45.8558 40.2998 45.7381 39.748 45.5094C39.1962 45.2806 38.6949 44.9453 38.2727 44.5227L38.1364 44.3864C37.6007 43.8624 36.9204 43.5109 36.1832 43.3773C35.4459 43.2436 34.6855 43.3338 34 43.6364C33.3278 43.9245 32.7545 44.4028 32.3507 45.0126C31.9469 45.6223 31.7302 46.3368 31.7273 47.0682V47.4545C31.7273 48.6601 31.2484 49.8162 30.3959 50.6687C29.5435 51.5211 28.3873 52 27.1818 52C25.9763 52 24.8201 51.5211 23.9677 50.6687C23.1153 49.8162 22.6364 48.6601 22.6364 47.4545V47.25C22.6188 46.4977 22.3753 45.7682 21.9375 45.1561C21.4998 44.5441 20.888 44.0779 20.1818 43.8182C19.4963 43.5156 18.7359 43.4254 17.9987 43.5591C17.2614 43.6928 16.5811 44.0442 16.0455 44.5682L15.9091 44.7045C15.4869 45.1272 14.9856 45.4624 14.4338 45.6912C13.882 45.9199 13.2905 46.0377 12.6932 46.0377C12.0958 46.0377 11.5044 45.9199 10.9525 45.6912C10.4007 45.4624 9.89942 45.1272 9.47727 44.7045C9.05465 44.2824 8.71938 43.7811 8.49064 43.2293C8.26189 42.6775 8.14415 42.086 8.14415 41.4886C8.14415 40.8913 8.26189 40.2998 8.49064 39.748C8.71938 39.1962 9.05465 38.6949 9.47727 38.2727L9.61364 38.1364C10.1376 37.6007 10.4891 36.9204 10.6227 36.1832C10.7564 35.4459 10.6662 34.6855 10.3636 34C10.0755 33.3278 9.59717 32.7545 8.98742 32.3507C8.37767 31.9469 7.66315 31.7302 6.93182 31.7273H6.54545C5.33992 31.7273 4.18377 31.2484 3.33133 30.3959C2.47889 29.5435 2 28.3873 2 27.1818C2 25.9763 2.47889 24.8201 3.33133 23.9677C4.18377 23.1153 5.33992 22.6364 6.54545 22.6364H6.75C7.50226 22.6188 8.23183 22.3753 8.84386 21.9375C9.45589 21.4998 9.92208 20.888 10.1818 20.1818C10.4844 19.4963 10.5746 18.7359 10.4409 17.9987C10.3072 17.2614 9.95577 16.5811 9.43182 16.0455L9.29545 15.9091C8.87283 15.4869 8.53757 14.9856 8.30882 14.4338C8.08007 13.882 7.96233 13.2905 7.96233 12.6932C7.96233 12.0958 8.08007 11.5044 8.30882 10.9525C8.53757 10.4007 8.87283 9.89942 9.29545 9.47727C9.7176 9.05465 10.2189 8.71938 10.7707 8.49064C11.3225 8.26189 11.914 8.14415 12.5114 8.14415C13.1087 8.14415 13.7002 8.26189 14.252 8.49064C14.8038 8.71938 15.3051 9.05465 15.7273 9.47727L15.8636 9.61364C16.3993 10.1376 17.0796 10.4891 17.8168 10.6227C18.5541 10.7564 19.3145 10.6662 20 10.3636H20.1818C20.854 10.0755 21.4273 9.59717 21.8311 8.98742C22.2349 8.37767 22.4516 7.66315 22.4545 6.93182V6.54545C22.4545 5.33992 22.9334 4.18377 23.7859 3.33133C24.6383 2.47889 25.7945 2 27 2C28.2055 2 29.3617 2.47889 30.2141 3.33133C31.0666 4.18377 31.5455 5.33992 31.5455 6.54545V6.75C31.5484 7.48133 31.7651 8.19585 32.1689 8.8056C32.5727 9.41535 33.146 9.89372 33.8182 10.1818C34.5037 10.4844 35.2641 10.5746 36.0013 10.4409C36.7386 10.3072 37.4189 9.95577 37.9545 9.43182L38.0909 9.29545C38.5131 8.87283 39.0144 8.53757 39.5662 8.30882C40.118 8.08007 40.7095 7.96233 41.3068 7.96233C41.9042 7.96233 42.4956 8.08007 43.0475 8.30882C43.5993 8.53757 44.1006 8.87283 44.5227 9.29545C44.9453 9.7176 45.2806 10.2189 45.5094 10.7707C45.7381 11.3225 45.8558 11.914 45.8558 12.5114C45.8558 13.1087 45.7381 13.7002 45.5094 14.252C45.2806 14.8038 44.9453 15.3051 44.5227 15.7273L44.3864 15.8636C43.8624 16.3993 43.5109 17.0796 43.3773 17.8168C43.2436 18.5541 43.3338 19.3145 43.6364 20V20.1818C43.9245 20.854 44.4028 21.4273 45.0126 21.8311C45.6223 22.2349 46.3368 22.4516 47.0682 22.4545H47.4545C48.6601 22.4545 49.8162 22.9334 50.6687 23.7859C51.5211 24.6383 52 25.7945 52 27C52 28.2055 51.5211 29.3617 50.6687 30.2141C49.8162 31.0666 48.6601 31.5455 47.4545 31.5455H47.25C46.5187 31.5484 45.8041 31.7651 45.1944 32.1689C44.5846 32.5727 44.1063 33.146 43.8182 33.8182Z" stroke="black" stroke-width="3" stroke-linecap="round" stroke-linejoin="round"/>
</svg>
