<svg width="100" height="100" viewBox="0 0 100 100" fill="none" xmlns="http://www.w3.org/2000/svg">
<circle cx="50" cy="50" r="50" fill="white"/>
<g clip-path="url(#clip0_84_3393)">
<path d="M50 20C33.4309 20 20 33.4309 20 50C20 66.5691 33.4309 80 50 80C66.5691 80 80 66.5691 80 50C80 33.433 66.5691 20.002 50 20Z" fill="#2EBD59"/>
<path d="M63.7584 63.267C63.22 64.1513 62.0675 64.4277 61.1872 63.8893C54.1432 59.5843 45.2752 58.6119 34.8331 60.9968C33.8259 61.2281 32.8228 60.5976 32.5936 59.5904C32.3622 58.5833 32.9907 57.5802 33.9999 57.3509C45.4267 54.7409 55.2302 55.8647 63.1381 60.6959C64.0183 61.2383 64.2988 62.3867 63.7584 63.267Z" fill="black"/>
<path d="M67.4288 55.1012C66.7512 56.2025 65.3101 56.5464 64.2108 55.8709C56.1494 50.9149 43.8546 49.4799 34.3172 52.3744C33.0808 52.7491 31.7748 52.051 31.3981 50.8166C31.0255 49.5802 31.7236 48.2762 32.958 47.8995C43.8526 44.5935 57.3981 46.1943 66.6571 51.8852C67.7584 52.5628 68.1064 54.0019 67.4288 55.1012Z" fill="black"/>
<path d="M67.7442 46.5938C58.0737 40.8517 42.1229 40.3236 32.8905 43.124C31.4084 43.5743 29.8404 42.7371 29.3921 41.255C28.9437 39.7729 29.779 38.2048 31.2631 37.7545C41.8608 34.5385 59.476 35.1588 70.608 41.7668C71.9407 42.559 72.3788 44.2806 71.5886 45.6112C70.8005 46.9459 69.0748 47.386 67.7442 46.5938Z" fill="black"/>
</g>
<defs>
<clipPath id="clip0_84_3393">
<rect width="60" height="60" fill="white" transform="translate(20 20)"/>
</clipPath>
</defs>
</svg>
